<svg data-name="Layer 1" id="Layer_1" viewBox="0 0 13 13" xmlns="http://www.w3.org/2000/svg">
  <defs>
    <style>.cls-1{fill:#6f6e6f;}</style>
  </defs>
  <path class="cls-1"
      d="M10.21,4.13a.39.39,0,0,0-.1.08l-.06,0-.2.2a2,2,0,0,0-.17.23.8.8,0,0,0-.13.24.05.05,0,0,0,0,0,.92.92,0,0,0-.09.23s0,0,0,0a1,1,0,0,0,0,.24,1.84,1.84,0,0,0,0,.33v0L6.53,4.18,7.24,3l-.47-.8Z"/>
  <path class="cls-1" d="M11.41,7.83,9.88,10.49H7.7L9.72,7l.11.13a2,2,0,0,0,.52.43.51.51,0,0,0,.16.09,1.52,1.52,0,0,0,.32.12l.2,0a2.07,2.07,0,0,0,.35,0Z"/>
  <path class="cls-1"
      d="M13,5.79a1.61,1.61,0,0,1-1.24,1.57,1.53,1.53,0,0,1-.38,0,1.69,1.69,0,0,1-.45-.07,1.3,1.3,0,0,1-.34-.15,1.61,1.61,0,0,1-.67-.72h0a1.52,1.52,0,0,1-.09-.28,1.58,1.58,0,0,1-.05-.38,1.61,1.61,0,1,1,3.22,0Z"/>
  <polygon class="cls-1" points="6.73 2.95 5.93 4.34 5.15 5.69 1.98 5.69 1.25 4.43 4.42 4.43 5.28 2.95 4.42 1.45 1.25 1.45 1.98 0.19 5.15 0.19 6 1.66 6.73 2.95"/>
  <rect class="cls-1" height="1.89" width="6.09" x="5.48" y="10.92"/>
  <rect class="cls-1" height="2.54" width="2.54" y="1.67"/>
</svg>
