<svg data-name="Layer 1" width="16px" height="16px" id="Layer_1" viewBox="0 0 16 16" xmlns="http://www.w3.org/2000/svg">
  <defs>
    <style>.cls-1{fill:#b0b1b3;}</style>
  </defs>
  <path class="cls-1"
      d="M12.56,5.08l-.12.1-.08.05a2.83,2.83,0,0,0-.24.25,1.46,1.46,0,0,0-.21.28,2.69,2.69,0,0,0-.16.29l0,0a2.31,2.31,0,0,0-.1.28.08.08,0,0,0,0,0,1.63,1.63,0,0,0-.07.3,2.71,2.71,0,0,0,0,.4v0L8,5.14,8.9,3.63l-.56-1Z"/>
  <path class="cls-1" d="M14,9.64,12.16,12.9H9.47L12,8.59a1.83,1.83,0,0,0,.13.16,2.47,2.47,0,0,0,.63.53l.2.11a2.74,2.74,0,0,0,.4.15.7.7,0,0,0,.25.05,2,2,0,0,0,.43.05Z"/>
  <path class="cls-1"
      d="M16,7.12a2,2,0,0,1-1.53,1.93,2.06,2.06,0,0,1-1,0A1.33,1.33,0,0,1,13,8.83,2,2,0,0,1,12.21,8h0a2.06,2.06,0,0,1-.12-.35A2.34,2.34,0,0,1,12,7.12a2,2,0,1,1,4,0Z"/>
  <polygon class="cls-1" points="8.29 3.63 7.3 5.34 6.34 7 2.44 7 1.54 5.45 5.44 5.45 6.5 3.63 5.44 1.79 1.54 1.79 2.44 0.23 6.34 0.23 7.38 2.04 8.29 3.63"/>
  <rect class="cls-1" height="2.33" width="7.49" x="6.74" y="13.44"/>
  <rect class="cls-1" height="3.13" width="3.13" y="2.06"/>
</svg>
